<svg data-v-423bf9ae="" xmlns="http://www.w3.org/2000/svg" viewBox="0 0 336.3228910503291 60" class="font"><!----><!----><!----><g data-v-423bf9ae="" id="b135371c-c743-4989-9c61-ffcf95025655" fill="black" transform="matrix(4.484305381774902,0,0,4.484305381774902,-5.874460220336914,-25.515697479248047)"><path d="M9.18 16.19L1.31 16.19L1.31 5.69L10.07 5.69Q11.05 5.69 11.66 5.85Q12.26 6.01 12.58 6.32Q12.91 6.63 13.02 7.10Q13.13 7.56 13.13 8.16L13.13 8.16Q13.13 8.60 13.05 8.93Q12.97 9.27 12.85 9.52Q12.73 9.76 12.57 9.93Q12.41 10.10 12.25 10.21L12.25 10.21Q11.87 10.47 11.38 10.50L11.38 10.50Q11.99 10.53 12.47 10.80L12.47 10.80Q12.67 10.92 12.87 11.09Q13.06 11.27 13.22 11.52Q13.37 11.78 13.47 12.12Q13.56 12.47 13.56 12.92L13.56 12.92Q13.56 13.47 13.51 13.92Q13.46 14.38 13.30 14.74Q13.15 15.10 12.85 15.37Q12.56 15.65 12.07 15.83Q11.58 16.01 10.87 16.10Q10.17 16.19 9.18 16.19L9.18 16.19ZM2.63 15.09L8.74 15.09Q9.51 15.09 10.07 15.07Q10.63 15.05 11.02 14.97Q11.41 14.89 11.65 14.74Q11.89 14.59 12.02 14.35Q12.15 14.11 12.20 13.76Q12.25 13.41 12.25 12.92L12.25 12.92Q12.25 12.54 12.20 12.25Q12.15 11.97 12.02 11.77Q11.89 11.58 11.65 11.46Q11.41 11.34 11.02 11.27Q10.63 11.20 10.07 11.18Q9.51 11.16 8.74 11.16L8.74 11.16L2.63 11.16L2.63 15.09ZM2.63 10.06L8.74 10.06Q9.41 10.06 9.90 10.04Q10.38 10.01 10.73 9.93Q11.07 9.86 11.28 9.72Q11.49 9.59 11.61 9.38Q11.73 9.17 11.77 8.87Q11.81 8.57 11.81 8.16L11.81 8.16Q11.81 7.72 11.72 7.45Q11.62 7.18 11.38 7.03Q11.13 6.88 10.71 6.83Q10.29 6.78 9.63 6.78L9.63 6.78L2.63 6.78L2.63 10.06ZM15.75 16.19L15.75 5.69L17.06 5.69L17.06 16.19L15.75 16.19ZM19.03 12.20L19.03 12.20Q19.03 10.99 19.29 10.19Q19.55 9.40 20.13 8.93Q20.70 8.47 21.62 8.28Q22.53 8.09 23.84 8.09L23.84 8.09Q25.16 8.09 26.07 8.28Q26.99 8.47 27.56 8.93Q28.14 9.40 28.40 10.19Q28.66 10.99 28.66 12.20L28.66 12.20Q28.66 13.41 28.40 14.21Q28.14 15.00 27.56 15.48Q26.99 15.95 26.07 16.14Q25.16 16.34 23.84 16.34L23.84 16.34Q22.53 16.34 21.62 16.14Q20.70 15.95 20.13 15.48Q19.55 15.00 19.29 14.21Q19.03 13.41 19.03 12.20ZM20.34 12.20L20.34 12.20Q20.34 12.85 20.39 13.34Q20.44 13.82 20.57 14.17Q20.71 14.52 20.95 14.74Q21.18 14.96 21.57 15.09Q21.96 15.22 22.52 15.26Q23.08 15.31 23.84 15.31L23.84 15.31Q24.50 15.31 25.02 15.28Q25.53 15.25 25.92 15.14Q26.30 15.03 26.58 14.83Q26.85 14.63 27.02 14.28Q27.19 13.93 27.27 13.42Q27.34 12.91 27.34 12.20L27.34 12.20Q27.34 11.49 27.27 11.00Q27.19 10.50 27.02 10.17Q26.85 9.83 26.58 9.64Q26.30 9.44 25.92 9.34Q25.53 9.24 25.02 9.21Q24.50 9.19 23.84 9.19L23.84 9.19Q23.19 9.19 22.67 9.21Q22.16 9.24 21.77 9.34Q21.38 9.44 21.11 9.64Q20.84 9.83 20.67 10.17Q20.50 10.50 20.42 11.00Q20.34 11.49 20.34 12.20ZM34.78 9.19L34.78 9.19Q34.02 9.19 33.46 9.24Q32.90 9.28 32.51 9.41Q32.12 9.53 31.88 9.75Q31.64 9.97 31.50 10.31Q31.37 10.65 31.33 11.13Q31.28 11.61 31.28 12.26L31.28 12.26Q31.28 12.91 31.33 13.38Q31.37 13.86 31.50 14.19Q31.64 14.53 31.88 14.75Q32.12 14.97 32.51 15.09Q32.90 15.22 33.46 15.26Q34.02 15.31 34.78 15.31L34.78 15.31Q35.44 15.31 35.95 15.28Q36.46 15.25 36.85 15.15Q37.24 15.04 37.51 14.84Q37.78 14.64 37.95 14.30Q38.12 13.96 38.20 13.46Q38.28 12.95 38.28 12.24L38.28 12.24Q38.28 11.53 38.20 11.03Q38.12 10.52 37.95 10.18Q37.78 9.84 37.51 9.65Q37.24 9.45 36.85 9.34Q36.46 9.24 35.95 9.21Q35.44 9.19 34.78 9.19ZM39.59 8.31L39.59 15.09Q39.59 16.24 39.33 17.00Q39.07 17.76 38.50 18.23Q37.93 18.70 37.01 18.88Q36.09 19.07 34.78 19.07L34.78 19.07Q33.55 19.07 32.71 18.96Q31.88 18.85 31.36 18.61Q30.85 18.38 30.63 18.00Q30.41 17.63 30.41 17.10L30.41 17.10L31.72 17.10Q31.72 17.36 31.86 17.53Q32.00 17.71 32.35 17.80Q32.70 17.90 33.29 17.93Q33.88 17.97 34.78 17.97L34.78 17.97Q35.77 17.97 36.44 17.90Q37.11 17.83 37.52 17.56Q37.93 17.29 38.10 16.75Q38.28 16.21 38.28 15.31L38.28 15.31Q38.19 15.48 37.98 15.67Q37.77 15.86 37.37 16.02Q36.97 16.19 36.34 16.30Q35.71 16.41 34.78 16.41L34.78 16.41Q33.47 16.41 32.55 16.21Q31.64 16.02 31.06 15.54Q30.49 15.07 30.23 14.27Q29.97 13.47 29.97 12.26L29.97 12.26Q29.97 11.03 30.23 10.23Q30.49 9.42 31.06 8.95Q31.64 8.48 32.55 8.29Q33.47 8.09 34.78 8.09L34.78 8.09Q35.71 8.09 36.34 8.19Q36.97 8.29 37.37 8.43Q37.77 8.57 37.98 8.74Q38.19 8.91 38.28 9.04L38.28 9.04L38.28 8.31L39.59 8.31ZM49.22 10.88L48.13 10.88Q48.13 10.38 48.05 10.06Q47.98 9.73 47.71 9.54Q47.45 9.34 46.93 9.27Q46.40 9.19 45.50 9.19L45.50 9.19Q44.62 9.19 44.06 9.34Q43.51 9.50 43.20 9.78Q42.88 10.06 42.77 10.45Q42.66 10.83 42.66 11.31L42.66 11.31L42.66 16.19L41.34 16.19L41.34 8.31L42.66 8.31L42.66 9.56Q42.72 9.35 42.91 9.10Q43.09 8.84 43.47 8.62Q43.85 8.39 44.44 8.24Q45.04 8.09 45.94 8.09L45.94 8.09Q46.96 8.09 47.61 8.27Q48.25 8.46 48.61 8.81Q48.97 9.16 49.09 9.68Q49.22 10.20 49.22 10.88L49.22 10.88ZM57.93 16.19L57.93 15.11Q57.91 15.19 57.63 15.52L57.63 15.52Q57.42 15.76 57.08 15.95Q56.74 16.14 56.17 16.25Q55.60 16.35 54.67 16.35L54.67 16.35Q53.43 16.35 52.55 16.23Q51.68 16.10 51.13 15.84Q50.57 15.57 50.32 15.16Q50.06 14.75 50.06 14.18L50.06 14.18Q50.06 13.59 50.20 13.18Q50.34 12.76 50.61 12.48Q50.88 12.20 51.26 12.04Q51.65 11.89 52.13 11.81Q52.62 11.72 53.20 11.70Q53.79 11.68 54.44 11.68L54.44 11.68Q55.38 11.68 56.01 11.76Q56.64 11.84 57.04 11.96Q57.44 12.08 57.64 12.22Q57.85 12.35 57.93 12.47L57.93 12.47Q57.93 11.70 57.87 11.16Q57.80 10.62 57.66 10.26Q57.51 9.90 57.28 9.68Q57.05 9.47 56.71 9.36Q56.37 9.25 55.92 9.22Q55.47 9.19 54.89 9.19L54.89 9.19Q53.98 9.19 53.39 9.23Q52.79 9.28 52.45 9.41Q52.10 9.54 51.95 9.77Q51.81 9.99 51.81 10.36L51.81 10.36L50.50 10.36Q50.50 9.74 50.72 9.31Q50.94 8.88 51.46 8.61Q51.97 8.34 52.81 8.22Q53.66 8.09 54.89 8.09L54.89 8.09Q56.09 8.09 56.92 8.29Q57.76 8.49 58.27 8.99Q58.79 9.49 59.02 10.33Q59.25 11.18 59.25 12.47L59.25 12.47L59.25 16.19L57.93 16.19ZM54.89 15.31L54.89 15.31Q55.75 15.31 56.34 15.23Q56.92 15.15 57.28 14.98Q57.63 14.82 57.78 14.57Q57.93 14.33 57.93 14L57.93 14Q57.93 13.67 57.76 13.44Q57.59 13.21 57.18 13.07Q56.77 12.93 56.10 12.86Q55.43 12.80 54.45 12.80L54.45 12.80Q53.46 12.80 52.86 12.83Q52.25 12.87 51.93 12.99Q51.60 13.11 51.48 13.35Q51.37 13.59 51.37 14L51.37 14Q51.37 14.41 51.49 14.67Q51.61 14.92 51.98 15.07Q52.35 15.21 53.04 15.26Q53.74 15.31 54.89 15.31ZM69.31 11.31L69.31 16.19L68.00 16.19L68.00 11.74Q68.00 11.03 67.90 10.54Q67.81 10.06 67.53 9.75Q67.25 9.45 66.73 9.32Q66.21 9.19 65.37 9.19L65.37 9.19Q64.45 9.19 63.85 9.34Q63.26 9.50 62.92 9.77Q62.58 10.05 62.44 10.44Q62.31 10.83 62.31 11.31L62.31 11.31L62.31 16.19L61.00 16.19L61.00 8.31L62.31 8.31L62.31 9.56Q62.32 9.54 62.37 9.42Q62.43 9.30 62.57 9.14Q62.71 8.98 62.95 8.80Q63.19 8.61 63.58 8.46Q63.96 8.30 64.51 8.20Q65.06 8.09 65.81 8.09L65.81 8.09Q66.55 8.09 67.09 8.19Q67.63 8.28 68.02 8.46Q68.41 8.64 68.65 8.91Q68.89 9.18 69.04 9.53L69.04 9.53Q69.15 9.34 69.40 9.10Q69.64 8.85 70.09 8.63Q70.53 8.40 71.19 8.25Q71.85 8.09 72.81 8.09L72.81 8.09Q73.60 8.09 74.16 8.20Q74.72 8.31 75.11 8.51Q75.50 8.72 75.74 9.03Q75.97 9.34 76.10 9.74Q76.23 10.15 76.27 10.65Q76.31 11.16 76.31 11.74L76.31 11.74L76.31 16.19L75.00 16.19L75.00 11.74Q75.00 11.03 74.90 10.54Q74.81 10.06 74.53 9.75Q74.25 9.45 73.73 9.32Q73.21 9.19 72.37 9.19L72.37 9.19Q71.45 9.19 70.85 9.34Q70.26 9.50 69.92 9.77Q69.58 10.05 69.44 10.44Q69.31 10.83 69.31 11.31L69.31 11.31Z"></path></g><!----><!----></svg>